<?xml version="1.0" encoding="UTF-8"?>
<svg width="68px" height="69px" viewBox="0 0 68 69" version="1.1" xmlns="http://www.w3.org/2000/svg" xmlns:xlink="http://www.w3.org/1999/xlink">
    <title>产品优势/icon-3</title>
    <defs>
        <linearGradient x1="0%" y1="90.2911496%" x2="100%" y2="9.70885038%" id="linearGradient-1">
            <stop stop-color="#255FE7" stop-opacity="0.304168488" offset="0%"></stop>
            <stop stop-color="#255FE7" offset="56.6730993%"></stop>
            <stop stop-color="#255FE7" offset="100%"></stop>
        </linearGradient>
        <linearGradient x1="0%" y1="54.5814712%" x2="61.9068583%" y2="49.1803834%" id="linearGradient-2">
            <stop stop-color="#255FE7" stop-opacity="0.599513767" offset="0%"></stop>
            <stop stop-color="#255FE7" offset="100%"></stop>
        </linearGradient>
        <linearGradient x1="0%" y1="88.5058733%" x2="99.8653927%" y2="11.5977901%" id="linearGradient-3">
            <stop stop-color="#1A326B" offset="0%"></stop>
            <stop stop-color="#1F48A8" offset="100%"></stop>
        </linearGradient>
    </defs>
    <g id="页面-1" stroke="none" stroke-width="1" fill="none" fill-rule="evenodd">
        <g id="控件" transform="translate(-451.000000, -451.000000)" stroke-width="4">
            <g id="编组" transform="translate(451.000000, 451.500000)">
                <g id="科学实验方法赋能" transform="translate(5.000000, 9.000000)">
                    <path d="M5.91620527,39.4537693 C6.20027729,37.582236 6.4133313,36.178586 6.55536731,35.2428193 C7.56671765,28.5798053 9.08374316,18.5852843 11.1064438,5.2592563 C11.1793697,4.77880355 11.5924067,4.42372881 12.0783625,4.42372881 L46.9889528,4.42372881 M51.3631039,8.816575 L45.9643537,44.3848115 C45.8914278,44.8652642 45.4783908,45.220339 44.992435,45.220339 L11.3617195,45.220339" id="形状" stroke="url(#linearGradient-1)"></path>
                    <polyline id="路径-2" stroke="url(#linearGradient-2)" transform="translate(28.535399, 24.461559) rotate(-11.000000) translate(-28.535399, -24.461559) " points="15.9003222 28.2862412 24.9681554 20.6368768 32.6075968 28.2862412 41.1704753 21.015761"></polyline>
                    <path d="M2.02421874,40.7966102 L8.94404785,40.7966102 C9.4963326,40.7966102 9.94404785,41.2443254 9.94404785,41.7966102 C9.94404785,41.8395372 9.94128375,41.8824198 9.93577271,41.9249916 L9.04935085,48.7724493 C8.98481935,49.2709441 8.5602804,49.6440678 8.05762599,49.6440678 L1.13779688,49.6440678 C0.585512134,49.6440678 0.137796884,49.1963525 0.137796884,48.6440678 C0.137796884,48.6011407 0.140560982,48.5582582 0.146072022,48.5156863 L1.03249388,41.6682287 C1.09702538,41.1697338 1.52156433,40.7966102 2.02421874,40.7966102 Z" id="矩形" stroke="url(#linearGradient-3)"></path>
                    <path d="M49.0131715,0 L55.9330006,0 C56.4852854,7.68579428e-16 56.9330006,0.44771525 56.9330006,1 C56.9330006,1.04292708 56.9302365,1.08580961 56.9247255,1.12838146 L56.0383036,7.97583908 C55.9737721,8.47433396 55.5492332,8.84745763 55.0465788,8.84745763 L48.1267497,8.84745763 C47.5744649,8.84745763 47.1267497,8.39974238 47.1267497,7.84745763 C47.1267497,7.80453055 47.1295138,7.76164802 47.1350248,7.71907617 L48.0214467,0.871618542 C48.0859782,0.373123668 48.5105171,-1.86861854e-17 49.0131715,0 Z" id="矩形" stroke="#255FE7"></path>
                </g>
            </g>
            <g id="产品优势/icon-3" transform="translate(451.000000, 451.500000)">
                <g id="科学实验方法赋能" transform="translate(5.000000, 9.000000)">
                    <path d="M5.91620527,39.4537693 C6.20027729,37.582236 6.4133313,36.178586 6.55536731,35.2428193 C7.56671765,28.5798053 9.08374316,18.5852843 11.1064438,5.2592563 C11.1793697,4.77880355 11.5924067,4.42372881 12.0783625,4.42372881 L46.9889528,4.42372881 M51.3631039,8.816575 L45.9643537,44.3848115 C45.8914278,44.8652642 45.4783908,45.220339 44.992435,45.220339 L11.3617195,45.220339" id="形状" stroke="url(#linearGradient-1)"></path>
                    <polyline id="路径-2" stroke="url(#linearGradient-2)" transform="translate(28.535399, 24.461559) rotate(-11.000000) translate(-28.535399, -24.461559) " points="15.9003222 28.2862412 24.9681554 20.6368768 32.6075968 28.2862412 41.1704753 21.015761"></polyline>
                    <path d="M2.02421874,40.7966102 L8.94404785,40.7966102 C9.4963326,40.7966102 9.94404785,41.2443254 9.94404785,41.7966102 C9.94404785,41.8395372 9.94128375,41.8824198 9.93577271,41.9249916 L9.04935085,48.7724493 C8.98481935,49.2709441 8.5602804,49.6440678 8.05762599,49.6440678 L1.13779688,49.6440678 C0.585512134,49.6440678 0.137796884,49.1963525 0.137796884,48.6440678 C0.137796884,48.6011407 0.140560982,48.5582582 0.146072022,48.5156863 L1.03249388,41.6682287 C1.09702538,41.1697338 1.52156433,40.7966102 2.02421874,40.7966102 Z" id="矩形" stroke="url(#linearGradient-3)"></path>
                    <path d="M49.0131715,0 L55.9330006,0 C56.4852854,7.68579428e-16 56.9330006,0.44771525 56.9330006,1 C56.9330006,1.04292708 56.9302365,1.08580961 56.9247255,1.12838146 L56.0383036,7.97583908 C55.9737721,8.47433396 55.5492332,8.84745763 55.0465788,8.84745763 L48.1267497,8.84745763 C47.5744649,8.84745763 47.1267497,8.39974238 47.1267497,7.84745763 C47.1267497,7.80453055 47.1295138,7.76164802 47.1350248,7.71907617 L48.0214467,0.871618542 C48.0859782,0.373123668 48.5105171,-1.86861854e-17 49.0131715,0 Z" id="矩形" stroke="#255FE7"></path>
                </g>
            </g>
        </g>
    </g>
</svg>