<?xml version="1.0" encoding="UTF-8"?>
<svg width="68px" height="69px" viewBox="0 0 68 69" version="1.1" xmlns="http://www.w3.org/2000/svg" xmlns:xlink="http://www.w3.org/1999/xlink">
    <title>产品优势/icon-5</title>
    <defs>
        <linearGradient x1="0%" y1="90.2332345%" x2="75.8196471%" y2="32.7506129%" id="linearGradient-1">
            <stop stop-color="#255FE7" stop-opacity="0.401606206" offset="0%"></stop>
            <stop stop-color="#255FE7" offset="100%"></stop>
        </linearGradient>
        <linearGradient x1="19.1326531%" y1="0%" x2="80.8673469%" y2="100%" id="linearGradient-2">
            <stop stop-color="#255FE7" stop-opacity="0.80154611" offset="0%"></stop>
            <stop stop-color="#255FE7" offset="100%"></stop>
        </linearGradient>
        <linearGradient x1="0%" y1="82%" x2="100%" y2="23.9078122%" id="linearGradient-3">
            <stop stop-color="#1E4398" stop-opacity="0.70435424" offset="0%"></stop>
            <stop stop-color="#255FE7" stop-opacity="0.804605551" offset="100%"></stop>
        </linearGradient>
        <linearGradient x1="100%" y1="100%" x2="0%" y2="0%" id="linearGradient-4">
            <stop stop-color="#255FE7" stop-opacity="0.79916958" offset="0%"></stop>
            <stop stop-color="#255FE7" offset="100%"></stop>
            <stop stop-color="#255FE7" offset="100%"></stop>
        </linearGradient>
        <linearGradient x1="0%" y1="88.5058733%" x2="99.8653927%" y2="11.5977901%" id="linearGradient-5">
            <stop stop-color="#1A326B" offset="0%"></stop>
            <stop stop-color="#1F48A8" offset="100%"></stop>
        </linearGradient>
    </defs>
    <g id="页面-1" stroke="none" stroke-width="1" fill="none" fill-rule="evenodd">
        <g id="控件" transform="translate(-559.000000, -451.000000)" stroke-width="4">
            <g id="编组" transform="translate(559.000000, 451.500000)">
                <g id="多维数据分析" transform="translate(4.000000, 8.500000)">
                    <path d="M8.85570349,-1.83852933e-13 L15.7755326,-1.83852933e-13 C16.3278173,-1.83084353e-13 16.7755326,0.44771525 16.7755326,1 C16.7755326,1.04292708 16.7727685,1.08580961 16.7672575,1.12838146 L15.8808356,7.97583908 C15.8163041,8.47433396 15.3917652,8.84745763 14.8891107,8.84745763 L7.96928164,8.84745763 C7.41699689,8.84745763 6.96928164,8.39974238 6.96928164,7.84745763 C6.96928164,7.80453055 6.97204573,7.76164802 6.97755677,7.71907617 L7.86397863,0.871618542 C7.92851013,0.373123668 8.35304908,-1.83871619e-13 8.85570349,-1.83852933e-13 Z" id="矩形" stroke="#255FE7"></path>
                    <path d="M45.3147811,41.2118644 L52.2346102,41.2118644 C52.786895,41.2118644 53.2346102,41.6595797 53.2346102,42.2118644 C53.2346102,42.2547915 53.2318461,42.297674 53.2263351,42.3402459 L52.3399132,49.1877035 C52.2753817,49.6861984 51.8508428,50.059322 51.3481884,50.059322 L44.4283593,50.059322 C43.8760745,50.059322 43.4283593,49.6116068 43.4283593,49.059322 C43.4283593,49.016395 43.4311234,48.9735124 43.4366344,48.9309406 L44.3230563,42.0834829 C44.3875878,41.5849881 44.8121267,41.2118644 45.3147811,41.2118644 Z" id="矩形" stroke="#255FE7"></path>
                    <path d="M53.9361945,9.11698727 C51.8313041,22.9845007 50.2526363,33.3851358 49.2001911,40.3188925 M43.0125191,47.8264477 C28.7070756,47.8264477 17.8151293,47.8264477 10.3366804,47.8264477 M5.74481136,41.8092371 C7.95228889,27.2658557 9.63635751,16.1708154 10.7970172,8.52411618 M16.6693087,4.59728107 C24.1765843,4.59728107 35.4374978,4.59728107 50.452049,4.59728107" id="形状" stroke="url(#linearGradient-1)"></path>
                    <path d="M26.7101494,21.7881356 L33.6299785,21.7881356 C34.1822633,21.7881356 34.6299785,22.2358508 34.6299785,22.7881356 C34.6299785,22.8310627 34.6272144,22.8739452 34.6217034,22.9165171 L33.7352815,29.7639747 C33.67075,30.2624696 33.2462111,30.6355932 32.7435567,30.6355932 L25.8237276,30.6355932 C25.2714428,30.6355932 24.8237276,30.187878 24.8237276,29.6355932 C24.8237276,29.5926661 24.8264917,29.5497836 24.8320027,29.5072118 L25.7184246,22.6597541 C25.7829561,22.1612593 26.207495,21.7881356 26.7101494,21.7881356 Z" id="矩形" stroke="#255FE7"></path>
                    <line x1="15.3314848" y1="8.84745763" x2="25.8724071" y2="21.7881356" id="路径-4" stroke="url(#linearGradient-2)"></line>
                    <line x1="34.7677754" y1="21.7881356" x2="49.3314848" y2="8.84745763" id="路径-5" stroke="#255FE7"></line>
                    <line x1="24.6859307" y1="30.6355932" x2="10.0818447" y2="41.2118644" id="路径-6" stroke="url(#linearGradient-3)"></line>
                    <line x1="32.5995513" y1="29.1791345" x2="44.3797507" y2="41.2118644" id="路径-7" stroke="url(#linearGradient-4)"></line>
                    <path d="M51.3557035,-1.83852933e-13 L58.2755326,-1.83852933e-13 C58.8278173,-1.83084353e-13 59.2755326,0.44771525 59.2755326,1 C59.2755326,1.04292708 59.2727685,1.08580961 59.2672575,1.12838146 L58.3808356,7.97583908 C58.3163041,8.47433396 57.8917652,8.84745763 57.3891107,8.84745763 L50.4692816,8.84745763 C49.9169969,8.84745763 49.4692816,8.39974238 49.4692816,7.84745763 C49.4692816,7.80453055 49.4720457,7.76164802 49.4775568,7.71907617 L50.3639786,0.871618542 C50.4285101,0.373123668 50.8530491,-1.83871619e-13 51.3557035,-1.83852933e-13 Z" id="矩形" stroke="#255FE7"></path>
                    <path d="M2.02421874,41.2118644 L8.94404785,41.2118644 C9.4963326,41.2118644 9.94404785,41.6595797 9.94404785,42.2118644 C9.94404785,42.2547915 9.94128375,42.297674 9.93577271,42.3402459 L9.04935085,49.1877035 C8.98481935,49.6861984 8.5602804,50.059322 8.05762599,50.059322 L1.13779688,50.059322 C0.585512134,50.059322 0.137796884,49.6116068 0.137796884,49.059322 C0.137796884,49.016395 0.140560982,48.9735124 0.146072022,48.9309406 L1.03249388,42.0834829 C1.09702538,41.5849881 1.52156433,41.2118644 2.02421874,41.2118644 Z" id="矩形" stroke="url(#linearGradient-5)"></path>
                </g>
            </g>
            <g id="产品优势/icon-5" transform="translate(559.000000, 451.500000)">
                <g id="多维数据分析" transform="translate(4.000000, 8.500000)">
                    <path d="M8.85570349,-1.83852933e-13 L15.7755326,-1.83852933e-13 C16.3278173,-1.83084353e-13 16.7755326,0.44771525 16.7755326,1 C16.7755326,1.04292708 16.7727685,1.08580961 16.7672575,1.12838146 L15.8808356,7.97583908 C15.8163041,8.47433396 15.3917652,8.84745763 14.8891107,8.84745763 L7.96928164,8.84745763 C7.41699689,8.84745763 6.96928164,8.39974238 6.96928164,7.84745763 C6.96928164,7.80453055 6.97204573,7.76164802 6.97755677,7.71907617 L7.86397863,0.871618542 C7.92851013,0.373123668 8.35304908,-1.83871619e-13 8.85570349,-1.83852933e-13 Z" id="矩形" stroke="#255FE7"></path>
                    <path d="M45.3147811,41.2118644 L52.2346102,41.2118644 C52.786895,41.2118644 53.2346102,41.6595797 53.2346102,42.2118644 C53.2346102,42.2547915 53.2318461,42.297674 53.2263351,42.3402459 L52.3399132,49.1877035 C52.2753817,49.6861984 51.8508428,50.059322 51.3481884,50.059322 L44.4283593,50.059322 C43.8760745,50.059322 43.4283593,49.6116068 43.4283593,49.059322 C43.4283593,49.016395 43.4311234,48.9735124 43.4366344,48.9309406 L44.3230563,42.0834829 C44.3875878,41.5849881 44.8121267,41.2118644 45.3147811,41.2118644 Z" id="矩形" stroke="#255FE7"></path>
                    <path d="M53.9361945,9.11698727 C51.8313041,22.9845007 50.2526363,33.3851358 49.2001911,40.3188925 M43.0125191,47.8264477 C28.7070756,47.8264477 17.8151293,47.8264477 10.3366804,47.8264477 M5.74481136,41.8092371 C7.95228889,27.2658557 9.63635751,16.1708154 10.7970172,8.52411618 M16.6693087,4.59728107 C24.1765843,4.59728107 35.4374978,4.59728107 50.452049,4.59728107" id="形状" stroke="url(#linearGradient-1)"></path>
                    <path d="M26.7101494,21.7881356 L33.6299785,21.7881356 C34.1822633,21.7881356 34.6299785,22.2358508 34.6299785,22.7881356 C34.6299785,22.8310627 34.6272144,22.8739452 34.6217034,22.9165171 L33.7352815,29.7639747 C33.67075,30.2624696 33.2462111,30.6355932 32.7435567,30.6355932 L25.8237276,30.6355932 C25.2714428,30.6355932 24.8237276,30.187878 24.8237276,29.6355932 C24.8237276,29.5926661 24.8264917,29.5497836 24.8320027,29.5072118 L25.7184246,22.6597541 C25.7829561,22.1612593 26.207495,21.7881356 26.7101494,21.7881356 Z" id="矩形" stroke="#255FE7"></path>
                    <line x1="15.3314848" y1="8.84745763" x2="25.8724071" y2="21.7881356" id="路径-4" stroke="url(#linearGradient-2)"></line>
                    <line x1="34.7677754" y1="21.7881356" x2="49.3314848" y2="8.84745763" id="路径-5" stroke="#255FE7"></line>
                    <line x1="24.6859307" y1="30.6355932" x2="10.0818447" y2="41.2118644" id="路径-6" stroke="url(#linearGradient-3)"></line>
                    <line x1="32.5995513" y1="29.1791345" x2="44.3797507" y2="41.2118644" id="路径-7" stroke="url(#linearGradient-4)"></line>
                    <path d="M51.3557035,-1.83852933e-13 L58.2755326,-1.83852933e-13 C58.8278173,-1.83084353e-13 59.2755326,0.44771525 59.2755326,1 C59.2755326,1.04292708 59.2727685,1.08580961 59.2672575,1.12838146 L58.3808356,7.97583908 C58.3163041,8.47433396 57.8917652,8.84745763 57.3891107,8.84745763 L50.4692816,8.84745763 C49.9169969,8.84745763 49.4692816,8.39974238 49.4692816,7.84745763 C49.4692816,7.80453055 49.4720457,7.76164802 49.4775568,7.71907617 L50.3639786,0.871618542 C50.4285101,0.373123668 50.8530491,-1.83871619e-13 51.3557035,-1.83852933e-13 Z" id="矩形" stroke="#255FE7"></path>
                    <path d="M2.02421874,41.2118644 L8.94404785,41.2118644 C9.4963326,41.2118644 9.94404785,41.6595797 9.94404785,42.2118644 C9.94404785,42.2547915 9.94128375,42.297674 9.93577271,42.3402459 L9.04935085,49.1877035 C8.98481935,49.6861984 8.5602804,50.059322 8.05762599,50.059322 L1.13779688,50.059322 C0.585512134,50.059322 0.137796884,49.6116068 0.137796884,49.059322 C0.137796884,49.016395 0.140560982,48.9735124 0.146072022,48.9309406 L1.03249388,42.0834829 C1.09702538,41.5849881 1.52156433,41.2118644 2.02421874,41.2118644 Z" id="矩形" stroke="url(#linearGradient-5)"></path>
                </g>
            </g>
        </g>
    </g>
</svg>