<?xml version="1.0" standalone="no"?><!DOCTYPE svg PUBLIC "-//W3C//DTD SVG 1.1//EN" "http://www.w3.org/Graphics/SVG/1.1/DTD/svg11.dtd"><svg t="1598069476411" class="icon" viewBox="0 0 1024 1024" version="1.1" xmlns="http://www.w3.org/2000/svg" p-id="2995" xmlns:xlink="http://www.w3.org/1999/xlink" width="200" height="200"><defs></defs><path d="M512 426.454l171.091-171.091c24.442-24.442 61.104-24.442 85.546 0s24.442 61.104 0 85.546L597.546 512l171.091 171.091c24.442 24.442 24.442 61.104 0 85.546s-61.104 24.442-85.546 0L512 597.546 340.909 768.637c-24.442 24.442-61.104 24.442-85.546 0-24.442-24.442-24.442-61.104 0-85.546L426.454 512 255.363 340.909c-24.442-24.442-24.442-61.104 0-85.546 24.442-24.442 61.104-24.442 85.546 0L512 426.454z" p-id="2996"></path></svg>