<?xml version="1.0" standalone="no"?><!DOCTYPE svg PUBLIC "-//W3C//DTD SVG 1.1//EN" "http://www.w3.org/Graphics/SVG/1.1/DTD/svg11.dtd"><svg t="1594639715301" class="icon" viewBox="0 0 1024 1024" version="1.1" xmlns="http://www.w3.org/2000/svg" p-id="3266" xmlns:xlink="http://www.w3.org/1999/xlink" width="200" height="200"><defs></defs><path d="M938.666667 42.666667H85.333333C38.272 42.666667 0 82.645333 0 131.776v632.448C0 813.376 38.272 853.333333 85.333333 853.333333h405.333334v42.666667H213.333333a21.333333 21.333333 0 0 0 0 42.666667h597.333334a21.333333 21.333333 0 0 0 0-42.666667H533.333333v-42.666667h405.333334c47.061333 0 85.333333-39.957333 85.333333-89.109333V131.776C1024 82.645333 985.728 42.666667 938.666667 42.666667zM85.333333 85.333333h853.333334c23.530667 0 42.666667 20.842667 42.666666 46.442667V640H42.666667V131.776C42.666667 106.176 61.802667 85.333333 85.333333 85.333333z m853.333334 725.333334H85.333333c-23.530667 0-42.666667-20.842667-42.666666-46.442667V682.666667h938.666666v81.557333c0 25.6-19.136 46.442667-42.666666 46.442667z" p-id="3267"></path><path d="M512 746.666667m-42.666667 0a42.666667 42.666667 0 1 0 85.333334 0 42.666667 42.666667 0 1 0-85.333334 0Z" p-id="3268"></path></svg>