<?xml version="1.0" standalone="no"?><!DOCTYPE svg PUBLIC "-//W3C//DTD SVG 1.1//EN" "http://www.w3.org/Graphics/SVG/1.1/DTD/svg11.dtd"><svg t="1594639838656" class="icon" viewBox="0 0 1024 1024" version="1.1" xmlns="http://www.w3.org/2000/svg" p-id="2232" xmlns:xlink="http://www.w3.org/1999/xlink" width="200" height="200"><defs></defs><path d="M746.666667 0H277.333333c-58.816 0-106.666667 47.850667-106.666666 106.666667v810.666666c0 58.816 47.850667 106.666667 106.666666 106.666667h469.333334c58.816 0 106.666667-47.872 106.666666-106.666667V106.666667c0-58.816-47.850667-106.666667-106.666666-106.666667zM213.333333 213.333333h597.333334v597.333334H213.333333V213.333333z m64-170.666666h469.333334c35.285333 0 64 28.714667 64 64v64H213.333333V106.666667c0-35.285333 28.714667-64 64-64z m469.333334 938.666666H277.333333c-35.285333 0-64-28.714667-64-64v-64h597.333334v64c0 35.285333-28.714667 64-64 64z" p-id="2233"></path><path d="M512 917.333333m-42.666667 0a42.666667 42.666667 0 1 0 85.333334 0 42.666667 42.666667 0 1 0-85.333334 0Z" p-id="2234"></path><path d="M405.333333 128h213.333334a21.333333 21.333333 0 0 0 0-42.666667H405.333333a21.333333 21.333333 0 0 0 0 42.666667z" p-id="2235"></path></svg>