<?xml version="1.0" encoding="UTF-8"?>
<svg width="14px" height="14px" viewBox="0 0 14 14" version="1.1" xmlns="http://www.w3.org/2000/svg" xmlns:xlink="http://www.w3.org/1999/xlink">
    <title>icon/成功</title>
    <g id="页面-1" stroke="none" stroke-width="1" fill="none" fill-rule="evenodd">
        <g id="编辑模式" transform="translate(-1493.000000, -506.000000)" fill="#05C88C" fill-rule="nonzero">
            <g id="编组-2" transform="translate(1152.000000, 150.000000)">
                <g id="list3" transform="translate(30.000000, 347.000000)">
                    <g id="icon/成功" transform="translate(311.000000, 9.000000)">
                        <g id="Combined-Shape">
                            <path d="M7,0 C10.8659932,0 14,3.13400675 14,7 C14,10.8659932 10.8659932,14 7,14 C3.13400675,14 0,10.8659932 0,7 C0,3.13400675 3.13400675,0 7,0 Z M10.6595285,4.61032664 C10.3062466,4.28059692 9.75255636,4.29968969 9.42282664,4.65297153 L9.42282664,4.65297153 L5.95746381,8.36586028 L4.55621843,6.9646149 C4.21450968,6.62290614 3.66049032,6.62290614 3.31878157,6.9646149 C2.97707281,7.30632366 2.97707281,7.86034301 3.31878157,8.20205177 L3.31878157,8.20205177 L5.36044823,10.2437184 C5.71051561,10.5937858 6.28104471,10.583952 6.61884003,10.2220285 L6.61884003,10.2220285 L10.7021734,5.84702847 C11.0319031,5.49374663 11.0128103,4.94005636 10.6595285,4.61032664 Z"></path>
                        </g>
                    </g>
                </g>
            </g>
        </g>
    </g>
</svg>