<?xml version="1.0" encoding="UTF-8"?>
<svg width="64px" height="64px" viewBox="0 0 64 64" version="1.1" xmlns="http://www.w3.org/2000/svg" xmlns:xlink="http://www.w3.org/1999/xlink">
    <!-- Generator: Sketch 60.1 (88133) - https://sketch.com -->
    <title>Logo</title>
    <desc>Created with Sketch.</desc>
    <g id="TAB-UI组件" stroke="none" stroke-width="1" fill="none" fill-rule="evenodd">
        <g id="Logo" transform="translate(-411.000000, -109.000000)">
            <g id="编组" transform="translate(411.000000, 109.000000)">
                <path d="M33.3934147,11.9998 L48.6885036,43.9317323 L51.8988005,43.9317323 C51.9214823,43.9317323 51.9440672,43.9315873 51.9665552,43.9312981 C51.9841965,43.9315992 52.0032197,43.9317323 52.0222734,43.9317323 C54.272617,43.9317323 56.0968809,42.0743243 56.0968809,39.7830955 C56.0968809,39.4519622 56.0587782,39.1298899 55.9867932,38.8211759 C55.8981629,38.2096221 55.6276815,37.6881522 55.2539609,37.2553992 C54.5085964,36.2696953 53.3382949,35.6344586 52.0222734,35.6344586 C51.8559257,35.6344586 51.6919062,35.6446081 51.5307797,35.664332 L46.9845768,35.6648819 L42.8185993,27.055329 L50.9110168,27.0857523 C50.9110168,27.0857523 53.6510201,26.8434797 56.5907728,28.0914824 C59.9573709,29.5206924 63.6036594,32.8289031 63.9991501,39.4059467 C64.0358138,42.602887 62.8811231,45.0196493 61.529691,46.9489228 C59.158255,50.3343305 54.8621514,52.2290061 50.6640709,51.9775736 L50.6640709,51.9775736 L43.7177294,51.9775736 L29,20.9467754 L33.3934147,11.9998 Z" id="形状结合备份-2" fill="#0198FF"></path>
                <path d="M32.4999522,10.9998 L28.5000081,18.9998 L25.999,18.9998 L9.49998603,51.9998 L0,51.9998 L16.701,18.9998 L5.74999154,18.9998 L9.25948638,10.9998 L32.4999522,10.9998 Z M30.0000059,27.24975 L34,35.74975 L20.0000206,35.74975 L24.2500143,27.24975 L30.0000059,27.24975 Z" id="形状结合备份" fill="#004FE1"></path>
            </g>
        </g>
    </g>
</svg>