<?xml version="1.0" encoding="UTF-8"?>
<svg width="16px" height="16px" viewBox="0 0 16 16" version="1.1" xmlns="http://www.w3.org/2000/svg" xmlns:xlink="http://www.w3.org/1999/xlink">
    <title>删除</title>
    <g id="页面-1" stroke="none" stroke-width="1" fill="none" fill-rule="evenodd">
        <g id="创建实验_第二步_开启流量均分" transform="translate(-870.000000, -369.000000)" fill-rule="nonzero">
            <g id="删除备份-2" transform="translate(870.000000, 369.000000)">
                <g id="删除">
                    <rect id="矩形" fill="#000000" opacity="0" x="0" y="0" width="16" height="16"></rect>
                    <path d="M7.09037567,11.4606547 L7.09037567,6.02247102 C7.09037567,5.70629989 6.83309988,5.4493102 6.51721279,5.4493102 C6.2007889,5.4493102 5.94352988,5.70631666 5.94352988,6.02247102 L5.94352988,11.4606547 C5.94352988,11.7768259 6.20080567,12.0338156 6.51721279,12.0338156 C6.83313343,12.0338156 7.09037567,11.7768259 7.09037567,11.4606547 Z M12.4511127,5.46217646 C12.1346888,5.46217646 11.8774298,5.71918292 11.8774298,6.03533728 L11.8774298,13.4379321 C11.8774298,13.6668911 11.691682,13.8531416 11.4627221,13.8531416 L4.54041479,13.8531416 C4.31145494,13.8531416 4.12570709,13.6668744 4.12570709,13.4379321 L4.12570709,6.01525786 C4.12570709,5.69908673 3.8684313,5.44184542 3.55202418,5.44184542 C3.23560029,5.44184542 2.97834128,5.69912028 2.97834128,6.01525786 L2.97834128,13.4379321 C2.97834128,14.2992334 3.67911041,15 4.54041479,15 L11.4627221,15 C12.3240265,15 13.0247956,14.2992334 13.0247956,13.4379321 L13.0247956,6.03533728 C13.0247956,5.71918292 12.7675198,5.46217646 12.4510792,5.46217646 L12.4511127,5.46217646 Z M10.056554,11.4606547 L10.056554,6.02247102 C10.056554,5.70629989 9.7992782,5.4493102 9.48287109,5.4493102 C9.16695044,5.4493102 8.9097082,5.70631666 8.9097082,6.02247102 L8.9097082,11.4606547 C8.9097082,11.7768259 9.16698399,12.0338156 9.48287109,12.0338156 C9.79929498,12.0338156 10.056554,11.7768259 10.056554,11.4606547 Z M14.4268707,3.47199929 L12.0343585,3.47199929 L12.0343585,2.5620679 C12.0343585,1.70076661 11.3382192,1 10.483088,1 L5.52826861,1 C4.66696422,1 3.96619509,1.70076661 3.96619509,2.5620679 L3.96619509,3.47199929 L1.57368291,3.47199929 C1.25725901,3.47199929 1,3.72900576 1,4.04516012 C1,4.36131447 1.25727579,4.61857256 1.57368291,4.61857256 L14.4268371,4.61857256 C14.7427578,4.61857256 15,4.3612977 15,4.04516012 C15,3.72902253 14.742741,3.47199929 14.4268371,3.47199929 L14.4268707,3.47199929 Z M10.8870262,3.47199929 L5.11309121,3.47199929 L5.11309121,2.5620679 C5.11309121,2.33310887 5.29935908,2.14659005 5.52830216,2.14659005 L10.4831215,2.14659005 C10.7095148,2.14659005 10.8870262,2.32898227 10.8870262,2.5620679 L10.8870262,3.47199929 L10.8870262,3.47199929 Z" id="形状" fill="#5050FF"></path>
                </g>
            </g>
        </g>
    </g>
</svg>