<?xml version="1.0" encoding="UTF-8"?>
<svg width="68px" height="69px" viewBox="0 0 68 69" version="1.1" xmlns="http://www.w3.org/2000/svg" xmlns:xlink="http://www.w3.org/1999/xlink">
    <title>产品优势/icon-1</title>
    <defs>
        <linearGradient x1="40.6621047%" y1="60.1260059%" x2="100%" y2="12.3099573%" id="linearGradient-1">
            <stop stop-color="#2459D7" stop-opacity="0.197934878" offset="0%"></stop>
            <stop stop-color="#255FE7" offset="100%"></stop>
        </linearGradient>
        <linearGradient x1="0%" y1="87.6900427%" x2="75.8196471%" y2="33.8409677%" id="linearGradient-2">
            <stop stop-color="#255FE7" stop-opacity="0.501775568" offset="0%"></stop>
            <stop stop-color="#255FE7" offset="100%"></stop>
        </linearGradient>
    </defs>
    <g id="页面-1" stroke="none" stroke-width="1" fill="none" fill-rule="evenodd">
        <g id="控件" transform="translate(-127.000000, -451.000000)">
            <g id="编组" transform="translate(127.000000, 451.500000)">
                <g id="支持多种试验方式" transform="translate(6.000000, 9.000000)">
                    <path d="M17.694833,-1.65793305e-14 L54.5095321,-1.65793305e-14 C55.0618169,-1.25345198e-14 55.5095321,0.44771525 55.5095321,1 C55.5095321,1.05023572 55.5057467,1.10040003 55.498208,1.15006687 L49.9067855,37.9876737 C49.8326023,38.4764101 49.412444,38.8376068 48.9181096,38.8376068 L12.1034105,38.8376068 C11.5511258,38.8376068 11.1034105,38.3898916 11.1034105,37.8376068 C11.1034105,37.7873711 11.1071959,37.7372068 11.1147347,37.68754 L16.7061571,0.84993313 C16.7803403,0.361196715 17.2004986,-1.65995451e-14 17.694833,-1.65793305e-14 Z" id="矩形" stroke="url(#linearGradient-1)" stroke-width="4"></path>
                    <path d="M6.75466204,10.9401709 L43.5693612,10.9401709 C44.1216459,10.9401709 44.5693612,11.3878862 44.5693612,11.9401709 C44.5693612,11.9904067 44.5655757,12.040571 44.558037,12.0902378 L38.9666145,48.9278446 C38.8924313,49.4165811 38.472273,49.7777778 37.9779387,49.7777778 L1.16323957,49.7777778 C0.610954821,49.7777778 0.16323957,49.3300625 0.16323957,48.7777778 C0.16323957,48.7275421 0.167025004,48.6773778 0.174563721,48.6277109 L5.76598619,11.7901041 C5.84016939,11.3013677 6.26032771,10.9401709 6.75466204,10.9401709 Z" id="矩形" stroke="url(#linearGradient-2)" stroke-width="4"></path>
                    <path d="M12.4517768,20.2222222 L34.6910829,20.2222222 C35.2433676,20.2222222 35.6910829,20.6699375 35.6910829,21.2222222 C35.6910829,21.2770784 35.6865691,21.3318416 35.6775872,21.3859575 L35.3456368,23.3859575 C35.265555,23.8684504 34.8482261,24.2222222 34.3591325,24.2222222 L12.1198264,24.2222222 C11.5675417,24.2222222 11.1198264,23.774507 11.1198264,23.2222222 C11.1198264,23.167366 11.1243402,23.1126028 11.1333221,23.058487 L11.4652725,21.058487 C11.5453544,20.575994 11.9626832,20.2222222 12.4517768,20.2222222 Z" id="矩形" fill="#255FE7"></path>
                    <path d="M11.5269709,29.1666667 L23.3712334,29.1666667 C23.9235181,29.1666667 24.3712334,29.6143819 24.3712334,30.1666667 C24.3712334,30.2215603 24.3667134,30.2763607 24.3577194,30.3305124 L24.0255388,32.3305124 C23.9454098,32.8129546 23.528104,33.1666667 23.0390528,33.1666667 L11.1947903,33.1666667 C10.6425056,33.1666667 10.1947903,32.7189514 10.1947903,32.1666667 C10.1947903,32.1117731 10.1993102,32.0569727 10.2083043,32.0028209 L10.5404849,30.0028209 C10.6206139,29.5203787 11.0379196,29.1666667 11.5269709,29.1666667 Z" id="矩形" fill="#255FE7"></path>
                </g>
            </g>
            <g id="产品优势/icon-1" transform="translate(127.000000, 451.500000)">
                <g id="支持多种试验方式" transform="translate(6.000000, 9.000000)">
                    <path d="M17.694833,-1.65793305e-14 L54.5095321,-1.65793305e-14 C55.0618169,-1.25345198e-14 55.5095321,0.44771525 55.5095321,1 C55.5095321,1.05023572 55.5057467,1.10040003 55.498208,1.15006687 L49.9067855,37.9876737 C49.8326023,38.4764101 49.412444,38.8376068 48.9181096,38.8376068 L12.1034105,38.8376068 C11.5511258,38.8376068 11.1034105,38.3898916 11.1034105,37.8376068 C11.1034105,37.7873711 11.1071959,37.7372068 11.1147347,37.68754 L16.7061571,0.84993313 C16.7803403,0.361196715 17.2004986,-1.65995451e-14 17.694833,-1.65793305e-14 Z" id="矩形" stroke="url(#linearGradient-1)" stroke-width="4"></path>
                    <path d="M6.75466204,10.9401709 L43.5693612,10.9401709 C44.1216459,10.9401709 44.5693612,11.3878862 44.5693612,11.9401709 C44.5693612,11.9904067 44.5655757,12.040571 44.558037,12.0902378 L38.9666145,48.9278446 C38.8924313,49.4165811 38.472273,49.7777778 37.9779387,49.7777778 L1.16323957,49.7777778 C0.610954821,49.7777778 0.16323957,49.3300625 0.16323957,48.7777778 C0.16323957,48.7275421 0.167025004,48.6773778 0.174563721,48.6277109 L5.76598619,11.7901041 C5.84016939,11.3013677 6.26032771,10.9401709 6.75466204,10.9401709 Z" id="矩形" stroke="url(#linearGradient-2)" stroke-width="4"></path>
                    <path d="M12.4517768,20.2222222 L34.6910829,20.2222222 C35.2433676,20.2222222 35.6910829,20.6699375 35.6910829,21.2222222 C35.6910829,21.2770784 35.6865691,21.3318416 35.6775872,21.3859575 L35.3456368,23.3859575 C35.265555,23.8684504 34.8482261,24.2222222 34.3591325,24.2222222 L12.1198264,24.2222222 C11.5675417,24.2222222 11.1198264,23.774507 11.1198264,23.2222222 C11.1198264,23.167366 11.1243402,23.1126028 11.1333221,23.058487 L11.4652725,21.058487 C11.5453544,20.575994 11.9626832,20.2222222 12.4517768,20.2222222 Z" id="矩形" fill="#255FE7"></path>
                    <path d="M11.5269709,29.1666667 L23.3712334,29.1666667 C23.9235181,29.1666667 24.3712334,29.6143819 24.3712334,30.1666667 C24.3712334,30.2215603 24.3667134,30.2763607 24.3577194,30.3305124 L24.0255388,32.3305124 C23.9454098,32.8129546 23.528104,33.1666667 23.0390528,33.1666667 L11.1947903,33.1666667 C10.6425056,33.1666667 10.1947903,32.7189514 10.1947903,32.1666667 C10.1947903,32.1117731 10.1993102,32.0569727 10.2083043,32.0028209 L10.5404849,30.0028209 C10.6206139,29.5203787 11.0379196,29.1666667 11.5269709,29.1666667 Z" id="矩形" fill="#255FE7"></path>
                </g>
            </g>
        </g>
    </g>
</svg>