<?xml version="1.0" encoding="UTF-8"?>
<svg width="68px" height="69px" viewBox="0 0 68 69" version="1.1" xmlns="http://www.w3.org/2000/svg" xmlns:xlink="http://www.w3.org/1999/xlink">
    <title>产品优势/icon-4</title>
    <defs>
        <linearGradient x1="48.9160811%" y1="100%" x2="50.2581214%" y2="41.0550939%" id="linearGradient-1">
            <stop stop-color="#255FE7" stop-opacity="0.502731643" offset="0%"></stop>
            <stop stop-color="#255FE7" offset="100%"></stop>
        </linearGradient>
        <linearGradient x1="49.0980786%" y1="100%" x2="50.214781%" y2="41.0550939%" id="linearGradient-2">
            <stop stop-color="#255FE7" stop-opacity="0.496394231" offset="0%"></stop>
            <stop stop-color="#255FE7" offset="100%"></stop>
        </linearGradient>
        <linearGradient x1="0%" y1="87.6900427%" x2="75.8196471%" y2="33.8409677%" id="linearGradient-3">
            <stop stop-color="#255FE7" stop-opacity="0.501775568" offset="0%"></stop>
            <stop stop-color="#255FE7" offset="100%"></stop>
        </linearGradient>
    </defs>
    <g id="页面-1" stroke="none" stroke-width="1" fill="none" fill-rule="evenodd">
        <g id="控件" transform="translate(-343.000000, -451.000000)" stroke-width="4">
            <g id="编组" transform="translate(343.000000, 451.500000)">
                <g id="快速实验，敏捷迭代" transform="translate(9.000000, 12.000000)">
                    <path d="M20.1416233,1.69712218 L16.5239408,26.4893753 M15.3740265,34.3698252 L14.1645505,42.292366" id="形状" stroke="url(#linearGradient-1)"></path>
                    <path d="M34.4235346,1.69712218 L33.1033771,11.3340866 M32.2809067,17.338006 L28.9713004,42.292366" id="形状" stroke="url(#linearGradient-2)"></path>
                    <path d="M7.42123808,0.67355226 L48.627497,0.67355226 C49.1797818,0.67355226 49.627497,1.12126751 49.627497,1.67355226 C49.627497,1.72378798 49.6237116,1.77395229 49.6161729,1.82361913 L43.3581744,43.0527858 C43.2839912,43.5415222 42.8638329,43.9027189 42.3694985,43.9027189 L1.16323957,43.9027189 C0.610954821,43.9027189 0.16323957,43.4550037 0.16323957,42.9027189 C0.16323957,42.8524832 0.167025004,42.8023189 0.174563721,42.7526521 L6.43256223,1.52348539 C6.50674544,1.03474898 6.92690375,0.67355226 7.42123808,0.67355226 Z" id="矩形" stroke="url(#linearGradient-3)"></path>
                    <path d="M12.9339624,26.1145833 L19.8537915,26.1145833 C20.4060762,26.1145833 20.8537915,26.5622986 20.8537915,27.1145833 C20.8537915,27.1575104 20.8510274,27.2003929 20.8455163,27.2429648 L19.9590945,34.0904224 C19.894563,34.5889173 19.470024,34.962041 18.9673696,34.962041 L12.0475405,34.962041 C11.4952558,34.962041 11.0475405,34.5143257 11.0475405,33.962041 C11.0475405,33.9191139 11.0503046,33.8762314 11.0558157,33.8336595 L11.9422375,26.9862019 C12.006769,26.487707 12.431308,26.1145833 12.9339624,26.1145833 Z" id="矩形" stroke="#255FE7"></path>
                    <path d="M29.6728131,9.87067835 L36.5926422,9.87067835 C37.144927,9.87067835 37.5926422,10.3183936 37.5926422,10.8706784 C37.5926422,10.9136054 37.5898781,10.956488 37.5843671,10.9990598 L36.6979453,17.8465174 C36.6334137,18.3450123 36.2088748,18.718136 35.7062204,18.718136 L28.7863913,18.718136 C28.2341065,18.718136 27.7863913,18.2704207 27.7863913,17.718136 C27.7863913,17.6752089 27.7891554,17.6323264 27.7946664,17.5897545 L28.6810883,10.7422969 C28.7456198,10.243802 29.1701587,9.87067835 29.6728131,9.87067835 Z" id="矩形" stroke="#255FE7"></path>
                </g>
            </g>
            <g id="产品优势/icon-4" transform="translate(343.000000, 451.500000)">
                <g id="快速实验，敏捷迭代" transform="translate(9.000000, 12.000000)">
                    <path d="M20.1416233,1.69712218 L16.5239408,26.4893753 M15.3740265,34.3698252 L14.1645505,42.292366" id="形状" stroke="url(#linearGradient-1)"></path>
                    <path d="M34.4235346,1.69712218 L33.1033771,11.3340866 M32.2809067,17.338006 L28.9713004,42.292366" id="形状" stroke="url(#linearGradient-2)"></path>
                    <path d="M7.42123808,0.67355226 L48.627497,0.67355226 C49.1797818,0.67355226 49.627497,1.12126751 49.627497,1.67355226 C49.627497,1.72378798 49.6237116,1.77395229 49.6161729,1.82361913 L43.3581744,43.0527858 C43.2839912,43.5415222 42.8638329,43.9027189 42.3694985,43.9027189 L1.16323957,43.9027189 C0.610954821,43.9027189 0.16323957,43.4550037 0.16323957,42.9027189 C0.16323957,42.8524832 0.167025004,42.8023189 0.174563721,42.7526521 L6.43256223,1.52348539 C6.50674544,1.03474898 6.92690375,0.67355226 7.42123808,0.67355226 Z" id="矩形" stroke="url(#linearGradient-3)"></path>
                    <path d="M12.9339624,26.1145833 L19.8537915,26.1145833 C20.4060762,26.1145833 20.8537915,26.5622986 20.8537915,27.1145833 C20.8537915,27.1575104 20.8510274,27.2003929 20.8455163,27.2429648 L19.9590945,34.0904224 C19.894563,34.5889173 19.470024,34.962041 18.9673696,34.962041 L12.0475405,34.962041 C11.4952558,34.962041 11.0475405,34.5143257 11.0475405,33.962041 C11.0475405,33.9191139 11.0503046,33.8762314 11.0558157,33.8336595 L11.9422375,26.9862019 C12.006769,26.487707 12.431308,26.1145833 12.9339624,26.1145833 Z" id="矩形" stroke="#255FE7"></path>
                    <path d="M29.6728131,9.87067835 L36.5926422,9.87067835 C37.144927,9.87067835 37.5926422,10.3183936 37.5926422,10.8706784 C37.5926422,10.9136054 37.5898781,10.956488 37.5843671,10.9990598 L36.6979453,17.8465174 C36.6334137,18.3450123 36.2088748,18.718136 35.7062204,18.718136 L28.7863913,18.718136 C28.2341065,18.718136 27.7863913,18.2704207 27.7863913,17.718136 C27.7863913,17.6752089 27.7891554,17.6323264 27.7946664,17.5897545 L28.6810883,10.7422969 C28.7456198,10.243802 29.1701587,9.87067835 29.6728131,9.87067835 Z" id="矩形" stroke="#255FE7"></path>
                </g>
            </g>
        </g>
    </g>
</svg>