<?xml version="1.0" encoding="UTF-8"?>
<svg width="362px" height="60px" viewBox="0 0 362 60" version="1.1" xmlns="http://www.w3.org/2000/svg" xmlns:xlink="http://www.w3.org/1999/xlink">
    <title>button/E-Mail_normal</title>
    <defs>
        <rect id="path-1" x="0" y="0" width="1440" height="580"></rect>
        <path d="M8.47623974,8.78606042 C8.79748219,8.9835728 9.20251781,8.9835728 9.52376026,8.78606042 L18,3.57453774 L18,13.1185942 C18,13.670879 17.5522847,14.1185942 17,14.1185942 L1,14.1185942 C0.44771525,14.1185942 6.76353751e-17,13.670879 0,13.1185942 L0,3.57453774 L8.47623974,8.78606042 Z M0,1 C-6.76353751e-17,0.44771525 0.44771525,-2.15305187e-13 1,-2.1540664e-13 L17,-2.1540664e-13 C17.5522847,-2.15508093e-13 18,0.44771525 18,1 L18,1.86878969 L9.52636723,7.11454575 C9.20385526,7.31420263 8.79614474,7.31420263 8.47363277,7.11454575 L0,1.86878969 L0,1 Z" id="path-3"></path>
        <path d="M8.47623974,8.78606042 C8.79748219,8.9835728 9.20251781,8.9835728 9.52376026,8.78606042 L18,3.57453774 L18,13.1185942 C18,13.670879 17.5522847,14.1185942 17,14.1185942 L1,14.1185942 C0.44771525,14.1185942 6.76353751e-17,13.670879 0,13.1185942 L0,3.57453774 L8.47623974,8.78606042 Z M0,1 C-6.76353751e-17,0.44771525 0.44771525,-2.15305187e-13 1,-2.1540664e-13 L17,-2.1540664e-13 C17.5522847,-2.15508093e-13 18,0.44771525 18,1 L18,1.86878969 L9.52636723,7.11454575 C9.20385526,7.31420263 8.79614474,7.31420263 8.47363277,7.11454575 L0,1.86878969 L0,1 Z" id="path-5"></path>
    </defs>
    <g id="官网框架" stroke="none" stroke-width="1" fill="none" fill-rule="evenodd">
        <g id="腾讯AB实验平台_官网框架" transform="translate(-539.000000, -3776.000000)">
            <g id="联系我们" transform="translate(0.000000, 3600.000000)">
                <g id="背景/深色">
                    <mask id="mask-2" fill="white">
                        <use xlink:href="#path-1"></use>
                    </mask>
                    <use fill="#111116" xlink:href="#path-1"></use>
                </g>
                <g id="button/E-Mail_normal" transform="translate(539.000000, 176.000000)">
                    <rect id="矩形" fill="#2D2CF3" x="0" y="0" width="362" height="60" rx="2"></rect>
                    <text id="邮箱信息待补充" font-family="PingFangSC-Medium, PingFang SC" font-size="20" font-weight="400" fill="#FFFFFF">
                        <tspan x="126" y="37">邮箱信息待补充</tspan>
                    </text>
                    <g id="编组" transform="translate(94.000000, 20.000000)">
                        <g id="icon/e-mail" transform="translate(3.000000, 2.500000)">
                            <mask id="mask-4" fill="white">
                                <use xlink:href="#path-3"></use>
                            </mask>
                            <use id="形状结合" fill="#FFFFFF" xlink:href="#path-3"></use>
                        </g>
                    </g>
                </g>
                <g id="button/E-Mail_normal" transform="translate(539.000000, 176.000000)">
                    <rect id="矩形" fill="#2D2CF3" x="0" y="0" width="362" height="60" rx="2"></rect>
                    <text id="邮箱信息待补充" font-family="PingFangSC-Medium, PingFang SC" font-size="20" font-weight="400" fill="#FFFFFF">
                        <tspan x="126" y="37">邮箱信息待补充</tspan>
                    </text>
                    <g id="编组" transform="translate(94.000000, 20.000000)">
                        <g id="icon/e-mail" transform="translate(3.000000, 2.500000)">
                            <mask id="mask-6" fill="white">
                                <use xlink:href="#path-5"></use>
                            </mask>
                            <use id="形状结合" fill="#FFFFFF" xlink:href="#path-5"></use>
                        </g>
                    </g>
                </g>
            </g>
        </g>
    </g>
</svg>