<?xml version="1.0" standalone="no"?><!DOCTYPE svg PUBLIC "-//W3C//DTD SVG 1.1//EN" "http://www.w3.org/Graphics/SVG/1.1/DTD/svg11.dtd"><svg class="icon" width="200px" height="200.00px" viewBox="0 0 1024 1024" version="1.1" xmlns="http://www.w3.org/2000/svg"><path fill="currentColor" d="M308.004571 66.505143H706.56C704 30.08 683.428571 11.209143 644.004571 11.209143h-273.005714c-39.424 0-60.434286 18.870857-62.994286 55.296z m-75.867428 118.710857h547.291428c-6.436571-39.003429-24.868571-60.434286-67.712-60.434286H299.849143c-42.843429 0-61.275429 21.430857-67.712 60.434286z m34.724571 827.574857h503.131429c77.165714 0 121.728-44.580571 121.728-132.864v-493.714286c0-88.283429-45.001143-132.845714-134.582857-132.845714H266.861714c-89.142857 0-134.582857 44.562286-134.582857 132.845714v493.714286c0 88.722286 45.44 132.864 134.582857 132.864z" /></svg>