<?xml version="1.0" standalone="no"?><!DOCTYPE svg PUBLIC "-//W3C//DTD SVG 1.1//EN" "http://www.w3.org/Graphics/SVG/1.1/DTD/svg11.dtd"><svg class="icon" width="200px" height="200.00px" viewBox="0 0 1024 1024" version="1.1" xmlns="http://www.w3.org/2000/svg"><path fill="currentColor" d="M383.84 479.548H207.62c-53.001 0-96.12-43.119-96.12-96.12V207.621c0-53.001 43.119-96.12 96.12-96.12h176.22c53.001 0 96.12 43.119 96.12 96.12v175.807c-0.001 53-43.12 96.12-96.12 96.12zM207.62 175.581c-17.667 0-32.04 14.373-32.04 32.04v175.807c0 17.667 14.373 32.04 32.04 32.04h176.22c17.667 0 32.04-14.373 32.04-32.04V207.621c0-17.667-14.373-32.04-32.04-32.04H207.62zM383.84 912.5H207.62c-53.001 0-96.12-43.119-96.12-96.12V640.573c0-53.001 43.119-96.12 96.12-96.12h176.22c53.001 0 96.12 43.119 96.12 96.12V816.38c-0.001 53.001-43.12 96.12-96.12 96.12zM207.62 608.533c-17.667 0-32.04 14.373-32.04 32.04V816.38c0 17.667 14.373 32.04 32.04 32.04h176.22c17.667 0 32.04-14.373 32.04-32.04V640.573c0-17.667-14.373-32.04-32.04-32.04H207.62zM816.379 912h-176.22c-53.001 0-96.12-43.119-96.12-96.12V640.073c0-53.001 43.119-96.12 96.12-96.12h176.22c53.001 0 96.12 43.119 96.12 96.12V815.88c0 53.001-43.119 96.12-96.12 96.12z m-176.22-303.967c-17.667 0-32.04 14.373-32.04 32.04V815.88c0 17.667 14.373 32.04 32.04 32.04h176.22c17.667 0 32.04-14.373 32.04-32.04V640.073c0-17.667-14.373-32.04-32.04-32.04h-176.22zM728.269 480.549c-102.137 0-185.231-83.001-185.231-185.024S626.132 110.5 728.269 110.5 913.5 193.501 913.5 295.525c0 102.022-83.094 185.024-185.231 185.024z m0-303.967c-65.699 0-119.149 53.357-119.149 118.942s53.449 118.942 119.149 118.942 119.149-53.357 119.149-118.942-53.45-118.942-119.149-118.942z" /></svg>