<?xml version="1.0" encoding="UTF-8"?>
<svg width="50px" height="32px" viewBox="0 0 50 32" version="1.1" xmlns="http://www.w3.org/2000/svg" xmlns:xlink="http://www.w3.org/1999/xlink">
    <title>tabLogo@2x</title>
    <defs>
        <rect id="path-1" x="0" y="0" width="1440" height="600"></rect>
        <linearGradient x1="0%" y1="50%" x2="96.8148739%" y2="50%" id="linearGradient-3">
            <stop stop-color="#FFFFFF" offset="0%"></stop>
            <stop stop-color="#2322EF" stop-opacity="0" offset="100%"></stop>
        </linearGradient>
        <linearGradient x1="0%" y1="50%" x2="96.6218154%" y2="50%" id="linearGradient-4">
            <stop stop-color="#FFFFFF" offset="0%"></stop>
            <stop stop-color="#2322EF" stop-opacity="0" offset="100%"></stop>
        </linearGradient>
        <linearGradient x1="0%" y1="50%" x2="96.8148739%" y2="50%" id="linearGradient-5">
            <stop stop-color="#FFFFFF" offset="0%"></stop>
            <stop stop-color="#0908C1" stop-opacity="0" offset="100%"></stop>
        </linearGradient>
        <linearGradient x1="0%" y1="50%" x2="96.8148739%" y2="50%" id="linearGradient-6">
            <stop stop-color="#2322EF" stop-opacity="0" offset="0%"></stop>
            <stop stop-color="#FFFFFF" offset="100%"></stop>
        </linearGradient>
        <linearGradient x1="0%" y1="50%" x2="96.8148739%" y2="50%" id="linearGradient-7">
            <stop stop-color="#FFFFFF" offset="0%"></stop>
            <stop stop-color="#0A09C1" stop-opacity="0" offset="100%"></stop>
        </linearGradient>
        <linearGradient x1="0%" y1="50%" x2="96.8148739%" y2="50%" id="linearGradient-8">
            <stop stop-color="#FFFFFF" offset="0%"></stop>
            <stop stop-color="#2322EF" stop-opacity="0" offset="100%"></stop>
        </linearGradient>
        <linearGradient x1="0%" y1="50%" x2="96.8148739%" y2="50%" id="linearGradient-9">
            <stop stop-color="#FFFFFF" offset="0%"></stop>
            <stop stop-color="#2322EF" stop-opacity="0" offset="100%"></stop>
        </linearGradient>
        <linearGradient x1="0%" y1="50%" x2="96.8148739%" y2="50%" id="linearGradient-10">
            <stop stop-color="#FFFFFF" offset="0%"></stop>
            <stop stop-color="#2322EF" stop-opacity="0" offset="100%"></stop>
        </linearGradient>
    </defs>
    <g id="页面-1" stroke="none" stroke-width="1" fill="none" fill-rule="evenodd">
        <g id="官网" transform="translate(-157.000000, -38.000000)">
            <g id="banner">
                <g id="背景/主题色">
                    <rect x="0" y="0" width="1440" height="600"></rect>
                </g>
                <g id="装饰">
                    <mask id="mask-2" fill="white">
                        <use xlink:href="#path-1"></use>
                    </mask>
                    <g id="蒙版"></g>
                    <g mask="url(#mask-2)">
                        <g transform="translate(-41.000000, -25.000000)">
                            <g id="编组-3" opacity="0.300013951" stroke-width="1" fill="none" transform="translate(0.100000, 0.000000)">
                                <polygon id="矩形" fill="url(#linearGradient-3)" opacity="0.399623326" points="517.0488 1.1688428e-12 1080.15972 1.1688428e-12 1056.55398 164.5 493.443056 164.5"></polygon>
                                <polygon id="矩形" fill="url(#linearGradient-4)" opacity="0.40452939" transform="translate(1095.736117, 224.000000) scale(-1, 1) translate(-1095.736117, -224.000000) " points="831.805956 141.5 1383.34377 141.5 1359.66628 306.5 808.128462 306.5"></polygon>
                                <polygon id="矩形" fill="url(#linearGradient-5)" opacity="0.398367746" transform="translate(1233.736117, 492.250000) scale(-1, 1) translate(-1233.736117, -492.250000) " points="970.605744 410 1520.47223 410 1496.86649 574.5 947 574.5"></polygon>
                                <polygon id="矩形" fill="url(#linearGradient-6)" opacity="0.299944196" points="555.605744 358 893.34136 358 869.735616 522.5 532 522.5"></polygon>
                                <polygon id="矩形" fill="url(#linearGradient-7)" opacity="0.399623326" points="28.5094535 179 532 179 503.490546 343.5 3.35440781e-12 343.5"></polygon>
                                <polygon id="矩形" fill="url(#linearGradient-8)" opacity="0.399623326" points="132.526273 492.25 636.01682 492.25 607.507366 656.75 104.01682 656.75"></polygon>
                                <polygon id="矩形" fill="url(#linearGradient-9)" opacity="0.40452939" points="697.605744 537 1402.36944 537 1378.7637 701.5 674 701.5"></polygon>
                            </g>
                            <polygon id="矩形" fill="url(#linearGradient-10)" opacity="0.149414062" points="943.484923 358 1360.37362 358 1336.76788 522.5 919.879179 522.5"></polygon>
                        </g>
                    </g>
                </g>
            </g>
            <g id="编组" transform="translate(157.000000, 36.000000)" fill="#FFFFFF">
                <text id="腾讯AB实验平台" font-family="TencentSansW7, TencentSans" font-size="28" font-weight="bold" line-spacing="36">
                    <tspan x="62" y="33">腾讯AB实验平台</tspan>
                </text>
                <g id="tabLogo" transform="translate(0.000000, 2.000000)" fill-rule="nonzero">
                    <path d="M26.0796238,1.279481 L37.7894232,25.7263165 L40.2472012,25.7263165 C40.2645662,25.7263165 40.281857,25.7262055 40.2990736,25.7259841 C40.3125797,25.7262146 40.3271437,25.7263165 40.341731,25.7263165 C42.0645763,25.7263165 43.4612184,24.3042996 43.4612184,22.5501529 C43.4612184,22.2966398 43.4320473,22.0500638 43.3769361,21.8137148 C43.3090815,21.345514 43.102003,20.9462808 42.8158855,20.6149685 C42.2452403,19.8603214 41.3492667,19.3739892 40.341731,19.3739892 C40.2143765,19.3739892 40.0888045,19.3817596 39.9654473,19.39686 L36.4849103,19.397281 L33.2954707,12.8058752 L39.4909617,12.8291671 C39.4909617,12.8291671 41.5886867,12.6436851 43.8393381,13.5991461 C46.4167791,14.693338 49.2083488,17.226078 49.5111334,22.2614107 C49.5392028,24.708963 48.6551807,26.5592172 47.6205349,28.0362537 C45.8049823,30.6280952 42.5159192,32.0786438 39.3019019,31.8861491 L39.3019019,31.8861491 L33.9838377,31.8861491 L22.7160601,8.12921479 L26.0796238,1.279481 Z" id="形状结合备份-2"></path>
                    <path d="M25.3955959,0.513888889 L22.3332703,6.63862578 L20.4185182,6.63862578 L7.78700325,31.9031655 L0.513888889,31.9031655 L13.3000427,6.63862578 L4.91603705,6.63862578 L7.60287862,0.513888889 L25.3955959,0.513888889 Z M23.4816568,12.9547224 L26.5440207,19.4622554 L15.8257469,19.4622554 L19.0795085,12.9547224 L23.4816568,12.9547224 Z" id="形状结合备份"></path>
                </g>
            </g>
            <g id="Logo/腾讯AB实验平台" transform="translate(157.000000, 36.000000)" fill="#FFFFFF" fill-rule="nonzero">
                <g id="tabLogo" transform="translate(0.000000, 2.000000)">
                    <path d="M26.0796238,1.279481 L37.7894232,25.7263165 L40.2472012,25.7263165 C40.2645662,25.7263165 40.281857,25.7262055 40.2990736,25.7259841 C40.3125797,25.7262146 40.3271437,25.7263165 40.341731,25.7263165 C42.0645763,25.7263165 43.4612184,24.3042996 43.4612184,22.5501529 C43.4612184,22.2966398 43.4320473,22.0500638 43.3769361,21.8137148 C43.3090815,21.345514 43.102003,20.9462808 42.8158855,20.6149685 C42.2452403,19.8603214 41.3492667,19.3739892 40.341731,19.3739892 C40.2143765,19.3739892 40.0888045,19.3817596 39.9654473,19.39686 L36.4849103,19.397281 L33.2954707,12.8058752 L39.4909617,12.8291671 C39.4909617,12.8291671 41.5886867,12.6436851 43.8393381,13.5991461 C46.4167791,14.693338 49.2083488,17.226078 49.5111334,22.2614107 C49.5392028,24.708963 48.6551807,26.5592172 47.6205349,28.0362537 C45.8049823,30.6280952 42.5159192,32.0786438 39.3019019,31.8861491 L39.3019019,31.8861491 L33.9838377,31.8861491 L22.7160601,8.12921479 L26.0796238,1.279481 Z" id="形状结合备份-2"></path>
                    <path d="M25.3955959,0.513888889 L22.3332703,6.63862578 L20.4185182,6.63862578 L7.78700325,31.9031655 L0.513888889,31.9031655 L13.3000427,6.63862578 L4.91603705,6.63862578 L7.60287862,0.513888889 L25.3955959,0.513888889 Z M23.4816568,12.9547224 L26.5440207,19.4622554 L15.8257469,19.4622554 L19.0795085,12.9547224 L23.4816568,12.9547224 Z" id="形状结合备份"></path>
                </g>
            </g>
        </g>
    </g>
</svg>