<?xml version="1.0" standalone="no"?><!DOCTYPE svg PUBLIC "-//W3C//DTD SVG 1.1//EN" "http://www.w3.org/Graphics/SVG/1.1/DTD/svg11.dtd"><svg t="1594639828532" class="icon" viewBox="0 0 1024 1024" version="1.1" xmlns="http://www.w3.org/2000/svg" p-id="2091" xmlns:xlink="http://www.w3.org/1999/xlink" width="200" height="200"><defs></defs><path d="M789.333333 0H234.666667C175.850667 0 128 47.850667 128 106.666667v810.666666c0 58.816 47.850667 106.666667 106.666667 106.666667h554.666666c58.816 0 106.666667-47.872 106.666667-106.666667V106.666667c0-58.816-47.850667-106.666667-106.666667-106.666667z m64 917.333333c0 35.285333-28.714667 64-64 64H234.666667c-35.285333 0-64-28.714667-64-64V106.666667c0-35.306667 28.714667-64 64-64h554.666666c35.285333 0 64 28.714667 64 64v810.666666z" p-id="2092"></path><path d="M512 917.333333m-42.666667 0a42.666667 42.666667 0 1 0 85.333334 0 42.666667 42.666667 0 1 0-85.333334 0Z" p-id="2093"></path><path d="M789.333333 128H234.666667a21.333333 21.333333 0 0 0-21.333334 21.333333v682.666667a21.333333 21.333333 0 0 0 21.333334 21.333333h554.666666a21.333333 21.333333 0 0 0 21.333334-21.333333V149.333333a21.333333 21.333333 0 0 0-21.333334-21.333333z m-21.333333 682.666667H256V170.666667h512v640z" p-id="2094"></path><path d="M512 85.333333m-21.333333 0a21.333333 21.333333 0 1 0 42.666666 0 21.333333 21.333333 0 1 0-42.666666 0Z" fill="#010101" p-id="2095"></path></svg>